<svg width="40" height="39" viewBox="0 0 40 39" fill="none" xmlns="http://www.w3.org/2000/svg">
<mask id="mask0_16_3106" style="mask-type:luminance" maskUnits="userSpaceOnUse" x="0" y="0" width="40" height="39">
<path d="M39.0994 0.0957031H0.901367V38.2937H39.0994V0.0957031Z" fill="white"/>
</mask>
<g mask="url(#mask0_16_3106)">
<path d="M29.5537 5.6633H13.8687C13.3161 5.66383 12.7864 5.88356 12.3957 6.27427C12.0049 6.66498 11.7852 7.19475 11.7847 7.7473V13.1083C11.7819 13.1647 11.7906 13.2211 11.8103 13.274C11.83 13.327 11.8602 13.3754 11.8992 13.4163C11.9381 13.4572 11.985 13.4897 12.0369 13.512C12.0888 13.5342 12.1447 13.5457 12.2012 13.5457C12.2577 13.5457 12.3136 13.5342 12.3655 13.512C12.4174 13.4897 12.4642 13.4572 12.5032 13.4163C12.5421 13.3754 12.5724 13.327 12.592 13.274C12.6117 13.2211 12.6204 13.1647 12.6177 13.1083V7.7473C12.6182 7.41594 12.7501 7.0983 12.9844 6.864C13.2187 6.62969 13.5363 6.49783 13.8677 6.4973H29.5537C29.885 6.49783 30.2027 6.62969 30.437 6.864C30.6713 7.0983 30.8032 7.41594 30.8037 7.7473V30.6473C30.8032 30.9787 30.6713 31.2963 30.437 31.5306C30.2027 31.7649 29.885 31.8968 29.5537 31.8973H13.8687C13.5372 31.897 13.2195 31.7653 12.9851 31.5309C12.7507 31.2965 12.6189 30.9787 12.6187 30.6473V25.6173C12.6214 25.5609 12.6127 25.5045 12.593 25.4516C12.5734 25.3986 12.5431 25.3502 12.5042 25.3093C12.4652 25.2684 12.4184 25.2359 12.3665 25.2136C12.3146 25.1914 12.2587 25.1799 12.2022 25.1799C12.1457 25.1799 12.0898 25.1914 12.0379 25.2136C11.986 25.2359 11.9391 25.2684 11.9002 25.3093C11.8612 25.3502 11.831 25.3986 11.8113 25.4516C11.7916 25.5045 11.7829 25.5609 11.7857 25.6173V30.6473C11.7886 31.1981 12.0092 31.7254 12.3995 32.1142C12.7897 32.5029 13.3179 32.7215 13.8687 32.7223H29.5537C30.1062 32.7218 30.636 32.502 31.0267 32.1113C31.4174 31.7206 31.6371 31.1908 31.6377 30.6383V7.7383C31.6371 7.18575 31.4174 6.65598 31.0267 6.26527C30.636 5.87456 30.1062 5.65483 29.5537 5.6543" fill="#2D99E0"/>
<path d="M15.8738 24.7877C15.8715 25.0314 15.9423 25.2702 16.0773 25.4731C16.2123 25.676 16.4052 25.8337 16.6308 25.9257C16.7842 25.991 16.9491 26.025 17.1158 26.0257C17.4379 26.0244 17.7464 25.8957 17.9738 25.6677L23.4238 20.3077C23.54 20.1934 23.6323 20.0572 23.6953 19.9068C23.7583 19.7565 23.7907 19.5952 23.7907 19.4322C23.7907 19.2692 23.7583 19.1079 23.6953 18.9576C23.6323 18.8073 23.54 18.671 23.4238 18.5567L17.9738 13.1967C17.8005 13.0259 17.5805 12.9102 17.3415 12.8641C17.1026 12.818 16.8554 12.8436 16.6309 12.9377C16.4065 13.0317 16.2149 13.1901 16.0801 13.3927C15.9454 13.5954 15.8737 13.8334 15.8738 14.0767V16.2227H8.57384C8.24656 16.2232 7.93284 16.3536 7.70151 16.5851C7.47017 16.8166 7.34011 17.1304 7.33984 17.4577V21.4077C7.34064 21.7347 7.47093 22.048 7.70221 22.279C7.93349 22.5101 8.2469 22.6402 8.57384 22.6407H15.8738V24.7877ZM8.57384 21.8077C8.46776 21.8077 8.36601 21.7656 8.291 21.6905C8.21599 21.6155 8.17384 21.5138 8.17384 21.4077V17.4577C8.17384 17.3516 8.21599 17.2499 8.291 17.1749C8.36601 17.0998 8.46776 17.0577 8.57384 17.0577H16.2938C16.4044 17.0577 16.5105 17.0138 16.5887 16.9356C16.6669 16.8574 16.7108 16.7513 16.7108 16.6407V14.0727C16.7104 13.9935 16.7335 13.9159 16.7771 13.8499C16.8208 13.7838 16.8831 13.7321 16.9561 13.7015C17.0292 13.6709 17.1097 13.6626 17.1874 13.6778C17.2652 13.693 17.3367 13.7309 17.3928 13.7867L22.8428 19.1477C22.8803 19.1844 22.9101 19.2282 22.9304 19.2765C22.9507 19.3249 22.9612 19.3768 22.9612 19.4292C22.9612 19.4816 22.9507 19.5336 22.9304 19.5819C22.9101 19.6302 22.8803 19.674 22.8428 19.7107L17.3928 25.0707C17.3367 25.1266 17.2652 25.1645 17.1874 25.1796C17.1097 25.1948 17.0292 25.1865 16.9561 25.1559C16.8831 25.1253 16.8208 25.0736 16.7771 25.0076C16.7335 24.9415 16.7104 24.8639 16.7108 24.7847V22.2247C16.7108 22.1141 16.6669 22.008 16.5887 21.9298C16.5105 21.8516 16.4044 21.8077 16.2938 21.8077H8.57384Z" fill="#2D99E0"/>
</g>
</svg>
