<svg width="84" height="39" viewBox="0 0 84 39" fill="none" xmlns="http://www.w3.org/2000/svg">
<path d="M26.166 5.29L27.104 6.354C26.908 6.592 26.908 6.606 26.544 7.334C26.054 8.37 25.242 9.42 24.388 10.148C23.828 10.638 23.366 10.946 22.708 11.31C22.288 10.722 22.078 10.512 21.448 10.036C22.386 9.616 22.918 9.294 23.492 8.748C24.066 8.216 24.5 7.642 24.822 6.97H17.472C16.492 6.97 16.142 6.984 15.568 7.054V5.304C16.1 5.388 16.534 5.416 17.5 5.416H24.808C25.648 5.416 25.774 5.402 26.166 5.29ZM19.516 8.118H21.42C21.378 8.384 21.378 8.398 21.364 9.252C21.308 11.646 20.93 12.99 19.978 14.208C19.138 15.286 18.116 16 16.366 16.728C16.002 15.972 15.82 15.72 15.26 15.132C16.394 14.796 17.024 14.488 17.71 13.942C19.138 12.808 19.586 11.604 19.586 8.958C19.586 8.538 19.572 8.412 19.516 8.118ZM31.318 5.822H37.744C37.996 5.822 38.206 5.822 38.514 5.794C38.542 4.94 39.214 4.282 40.054 4.282C40.908 4.282 41.594 4.968 41.594 5.822C41.594 6.676 40.908 7.376 40.068 7.376C40.04 7.376 40.012 7.376 39.914 7.362C39.424 9.252 38.836 10.666 38.024 11.884C37.17 13.172 35.952 14.348 34.538 15.272C33.74 15.804 33.082 16.14 31.878 16.658C31.486 15.902 31.304 15.636 30.646 14.992C31.878 14.6 32.676 14.236 33.712 13.564C35.896 12.15 37.268 10.176 37.954 7.46H31.29C30.352 7.46 30.03 7.474 29.526 7.544V5.724C30.072 5.808 30.366 5.822 31.318 5.822ZM40.054 5.024C39.62 5.024 39.256 5.388 39.256 5.822C39.256 6.256 39.62 6.62 40.054 6.62C40.488 6.62 40.852 6.256 40.852 5.822C40.852 5.374 40.502 5.024 40.054 5.024ZM44.856 4.954L46.76 4.968C46.704 5.36 46.704 5.486 46.704 6.228V10.092C46.704 10.792 46.704 10.974 46.76 11.324H44.842C44.884 11.002 44.912 10.568 44.912 10.064V6.214C44.912 5.5 44.898 5.318 44.856 4.954ZM51.17 4.982H53.116C53.06 5.332 53.046 5.486 53.046 6.284V8.174C53.032 10.358 52.934 11.534 52.682 12.416C52.276 13.816 51.38 14.866 49.924 15.678C49.182 16.098 48.482 16.378 47.194 16.756C46.942 16.07 46.802 15.832 46.214 15.09C47.586 14.824 48.398 14.53 49.238 13.97C50.554 13.102 51.016 12.248 51.17 10.4C51.226 9.798 51.24 9.182 51.24 8.062V6.312C51.24 5.598 51.226 5.304 51.17 4.982ZM64.092 7.026C63.826 9.224 63.336 11.156 62.636 12.738C61.838 14.544 60.942 15.37 59.794 15.37C58.198 15.37 57.05 13.746 57.05 11.492C57.05 9.952 57.596 8.51 58.59 7.418C59.766 6.13 61.418 5.458 63.406 5.458C66.766 5.458 68.95 7.502 68.95 10.652C68.95 13.074 67.69 15.006 65.548 15.874C64.876 16.154 64.33 16.294 63.35 16.462C63.112 15.72 62.944 15.412 62.496 14.824C63.784 14.656 64.624 14.432 65.282 14.054C66.5 13.382 67.228 12.052 67.228 10.554C67.228 9.21 66.626 8.118 65.506 7.446C65.072 7.194 64.708 7.082 64.092 7.026ZM62.384 7.04C61.656 7.124 61.152 7.32 60.578 7.726C59.402 8.566 58.674 10.008 58.674 11.506C58.674 12.654 59.164 13.564 59.78 13.564C60.242 13.564 60.718 12.976 61.222 11.772C61.754 10.512 62.216 8.622 62.384 7.04Z" fill="#2D99E0"/>
<path d="M11.508 24.34L12.096 24.928C11.914 25.166 11.886 25.222 11.662 25.852C11.214 27.14 10.444 28.764 9.87 29.702C8.442 32.04 6.468 33.692 3.486 35.064C3.038 34.308 2.856 34.07 2.324 33.608C3.514 33.132 4.214 32.768 5.054 32.222C6.048 31.578 6.636 31.074 7.35 30.262C6.37 29.436 5.53 28.848 4.48 28.274L5.544 27.028C6.72 27.686 7.308 28.078 8.358 28.904C9.016 27.896 9.492 26.902 9.926 25.6L5.572 25.642C4.69 27.084 3.696 28.232 2.296 29.408C1.834 28.876 1.624 28.708 0.896 28.288C2.45 27.112 3.542 25.88 4.396 24.284C4.858 23.444 5.082 22.926 5.222 22.338L7.042 22.744C6.888 22.996 6.888 22.996 6.622 23.542C6.454 23.92 6.356 24.074 6.286 24.214C6.51 24.186 6.51 24.186 9.926 24.158C10.332 24.144 10.668 24.116 10.92 24.06C10.584 23.43 10.388 23.108 10.038 22.646L11.158 22.254C11.676 22.898 11.914 23.304 12.236 24.06L11.508 24.34ZM13.916 23.486L12.81 23.948C12.516 23.29 12.18 22.716 11.76 22.156L12.852 21.75C13.328 22.352 13.622 22.814 13.916 23.486ZM25.746 24.648L26.558 25.474C26.432 25.74 26.418 25.824 26.348 26.244C26.11 27.854 25.9 28.638 25.466 29.632C24.78 31.242 23.66 32.488 22.008 33.496C21.168 34.014 20.44 34.336 19.222 34.756C18.9 34.042 18.732 33.79 18.102 33.09C19.432 32.768 20.202 32.474 21.084 31.928C23.114 30.668 24.178 28.89 24.444 26.314H17.612V28.12C17.612 28.554 17.626 28.932 17.654 29.24H15.778C15.82 28.89 15.848 28.456 15.848 28.064V26.034C15.848 25.446 15.834 25.082 15.792 24.704C16.282 24.76 16.534 24.774 17.304 24.774H20.048V23.57C20.048 23.122 20.034 22.87 19.978 22.548H21.924C21.882 22.786 21.854 23.164 21.854 23.556V24.76H24.374C25.41 24.76 25.41 24.76 25.746 24.648ZM29.708 25.012L30.87 23.626C32.536 24.662 33.404 25.306 34.482 26.328L33.278 27.854C32.158 26.664 31.01 25.74 29.708 25.012ZM30.198 34.252L29.68 32.32C30.884 32.25 32.55 31.844 33.824 31.284C35.574 30.528 36.876 29.45 37.982 27.854C38.598 26.958 38.99 26.188 39.41 25.054C39.956 25.712 40.18 25.922 40.894 26.426C39.704 28.988 38.374 30.64 36.456 31.914C35.028 32.866 33.292 33.552 31.122 34.014C30.562 34.126 30.52 34.14 30.198 34.252ZM52.374 33.188H45.654V34.168H43.848C43.89 33.832 43.904 33.496 43.904 32.964V24.942C43.904 24.41 43.89 24.144 43.848 23.766C44.184 23.794 44.478 23.808 45.038 23.808H52.99C53.592 23.808 53.844 23.794 54.166 23.766C54.138 24.13 54.124 24.41 54.124 24.928V32.936C54.124 33.454 54.138 33.832 54.18 34.154H52.374V33.188ZM52.374 31.592V25.39H45.654V31.592H52.374ZM56.994 29.604V27.658C57.61 27.742 57.876 27.756 59.262 27.756H66.724C68.11 27.756 68.376 27.742 68.992 27.658V29.604C68.432 29.534 68.278 29.534 66.71 29.534H59.276C57.708 29.534 57.554 29.534 56.994 29.604ZM78.316 24.116L79.366 23.556C79.94 24.158 80.248 24.592 80.71 25.446L79.66 26.034C79.24 25.264 78.82 24.662 78.316 24.116ZM82.208 24.564L81.172 25.166C80.766 24.438 80.374 23.864 79.856 23.304L80.864 22.758C81.424 23.332 81.788 23.822 82.208 24.564ZM75.39 34.63H73.472C73.542 34.182 73.556 33.804 73.556 33.062V24.088C73.556 23.402 73.528 23.038 73.472 22.66H75.39C75.334 23.08 75.334 23.262 75.334 24.13V26.734C77.252 27.406 79.45 28.428 81.69 29.688L80.71 31.34C79.548 30.542 78.092 29.744 75.754 28.666C75.432 28.512 75.39 28.498 75.278 28.428C75.32 28.82 75.334 28.988 75.334 29.38V33.076C75.334 33.804 75.348 34.168 75.39 34.63Z" fill="#2D99E0"/>
</svg>
